Coordinates
version=1
nRows=8
nColumns=36
inDegrees=yes

Units are S.I. units (second, meters, Newtons, ...)
If the header above contains a line with 'inDegrees', this indicates whether rotational values are in degrees (yes) or radians (no).

endheader
time	pelvis_tilt	pelvis_list	pelvis_rotation	pelvis_tx	pelvis_ty	pelvis_tz	hip_flexion_r	hip_adduction_r	hip_rotation_r	knee_angle_r	knee_angle_r_beta	ankle_angle_r	subtalar_angle_r	mtp_angle_r	hip_flexion_l	hip_adduction_l	hip_rotation_l	knee_angle_l	knee_angle_l_beta	ankle_angle_l	subtalar_angle_l	mtp_angle_l	lumbar_extension	lumbar_bending	lumbar_rotation	arm_flex_r	arm_add_r	arm_rot_r	elbow_flex_r	pro_sup_r	arm_flex_l	arm_add_l	arm_rot_l	elbow_flex_l	pro_sup_l
     14.98333330	     -7.90259604	      0.78600916	     -0.61993502	      0.89686901	      0.77909771	      0.71991625	     -7.62142674	      1.53793372	      1.00361597	      9.74487061	      0.17008008	     21.63993624	      5.26596878	     -7.49999987	     33.47052787	      1.48292067	      0.27496631	      9.38018577	      0.16371513	      5.27965358	      4.66381719	     -7.49999987	      5.29528870	      0.81306603	      5.54448944	      8.37277401	    -16.49037459	     11.32512674	     19.46589508	     93.60879560	      3.92148880	     -7.50285955	      4.01682502	      7.33805601	     93.57789712
     15.00000000	     -8.42089838	      1.11833121	     -0.75362247	      0.89717580	      0.77686103	      0.71861220	     -6.84231200	      0.96436108	      1.58647194	     12.32652121	      0.21513838	     20.70164316	      3.34879394	     -7.49999987	     33.62509660	      1.97209052	      0.30862936	     10.84058521	      0.18920390	      4.03255230	      3.09977201	     -7.49999987	      6.29989892	      0.39731773	      5.96355166	      7.87366995	    -16.25569324	     11.05415580	     18.67451984	     93.50866418	      3.77948231	     -7.64906035	      3.71466244	      7.19892147	     93.38464234
     15.01666670	     -9.26924459	      1.28224300	     -0.71483728	      0.89885365	      0.77627031	      0.71849928	     -5.08302851	      0.53885848	      1.75362865	     15.93025512	      0.27803540	     18.61438992	      1.11323227	     -7.49999987	     34.18532917	      2.30341397	      0.29721545	     12.49861372	      0.21814196	      3.07411987	      1.79971631	     -7.49999987	      7.68373183	      0.16124197	      6.03452778	      7.23799046	    -15.93606644	     10.46676960	     17.87299738	     93.28915289	      3.42360621	     -7.76487703	      3.11614945	      7.10119054	     92.96202812
     15.03333330	     -9.74997497	      1.52268541	     -0.71348070	      0.90330179	      0.77902761	      0.71893124	     -3.02519895	     -0.03264839	      1.75542174	     20.66524224	      0.36067652	     15.90724093	     -0.93611379	     -7.49999987	     34.24776185	      2.62178534	      0.17422514	     14.10566752	      0.24619034	      2.68305141	      0.80481983	     -7.49999987	      8.56997142	     -0.20906003	      6.06782875	      6.71471739	    -15.49212512	     10.07996765	     17.30116009	     93.03983327	      3.11061043	     -8.02123945	      2.65053149	      7.17638748	     92.50261158
     15.05000000	    -10.08806297	      1.85224179	     -0.65290586	      0.90944082	      0.78425346	      0.71843276	     -0.66894347	     -0.72782581	      1.69333503	     26.07985816	      0.45517939	     12.22841841	     -2.76645322	     -7.49999987	     33.98173170	      3.04908311	      0.14821226	     15.52484896	      0.27095973	      2.93821034	     -0.02714151	     -7.49999987	      9.29149136	     -0.79238743	      6.07919558	      5.75577535	    -14.96285600	      9.87431264	     16.95578602	     89.71916581	      2.94022421	     -8.25831322	      2.44964540	      6.92572790	     89.00947702
     15.06666670	    -10.35173818	      2.21480804	     -0.55913581	      0.91309333	      0.78948556	      0.71683604	      1.95188481	     -1.44038902	      1.61753108	     31.85101228	      0.55590503	      7.53776074	     -4.59173753	     -7.49999987	     33.45219544	      3.54165540	      0.21654150	     16.59069735	      0.28956229	      3.56292488	     -0.65948057	     -7.49999987	      9.97638699	     -1.41687122	      5.55209438	      5.31844558	    -14.30341698	     10.94690002	     15.76341758	     90.79205856	      2.39560280	     -8.86323635	      4.02336515	      7.24245159	     89.65272205
     15.08333330	    -10.47441573	      2.59102676	     -0.54309668	      0.91251475	      0.79294199	      0.71462842	      4.73044974	     -2.08709084	      1.73016499	     37.71012554	      0.65816585	      2.38476359	     -6.40184829	     -7.49999987	     32.59087860	      4.04545706	      0.26066840	     17.18073154	      0.29986033	      4.41867670	     -1.10359338	     -7.49999987	     10.31629648	     -2.06546702	      5.35349933	      4.45310572	    -13.64548569	     10.67800557	     15.31889450	     91.22577623	      2.38249130	     -9.26047827	      3.85184683	      7.25226447	     89.96221285
     15.10000000	    -10.48148934	      2.94713118	     -0.51928688	      0.91066551	      0.79517854	      0.71170603	      7.64403692	     -2.62009581	      1.91490790	     43.43848796	      0.75814464	     -2.31077687	     -8.01742026	     -7.49999987	     31.45865079	      4.56757595	      0.26619227	     17.28585495	      0.30169508	      5.21842406	     -1.52839438	     -7.49999987	     10.28823123	     -2.62358716	      4.84914032	      3.79229123	    -13.00402713	     10.48493113	     14.99389143	     91.37059665	      2.48347235	     -9.62959497	      3.86514555	      7.46935523	     90.05821239
